<svg xmlns="http://www.w3.org/2000/svg" viewBox="0 0 225 63"><title>logo</title><g id="Layer_2" data-name="Layer 2"><g id="Layer_1-2" data-name="Layer 1"><path d="M37.64,38.79H34.83V29.68H24.46v9.11H21.65V18.27h2.81V27H34.83V18.27h2.81Z" style="fill:#fff"/><path d="M43.36,26.54a7.13,7.13,0,0,1,10.11,0,7.36,7.36,0,0,1,2,5.28,7.43,7.43,0,0,1-2,5.31,7.17,7.17,0,0,1-10.14,0,7.43,7.43,0,0,1-2-5.31A7.37,7.37,0,0,1,43.36,26.54Zm2,8.94a4.18,4.18,0,0,0,6.1,0,5.08,5.08,0,0,0,1.25-3.66,5,5,0,0,0-1.25-3.63,4.18,4.18,0,0,0-6.1,0,5.06,5.06,0,0,0-1.25,3.63A5.12,5.12,0,0,0,45.36,35.48Z" style="fill:#fff"/><path d="M57.9,39.55l2.6-.61a3.73,3.73,0,0,0,1.18,2.44,3.61,3.61,0,0,0,2.58,1q4.21,0,4.21-4.51v-2a3.9,3.9,0,0,1-1.62,1.65,5.05,5.05,0,0,1-2.59.64,5.94,5.94,0,0,1-4.54-1.9,6.75,6.75,0,0,1-1.8-4.85,6.89,6.89,0,0,1,1.78-4.81,5.87,5.87,0,0,1,4.56-2c2.1,0,3.51.74,4.24,2.2V24.87h2.66V37.75a9,9,0,0,1-.36,2.59,6.72,6.72,0,0,1-1.13,2.21,5.07,5.07,0,0,1-2.16,1.6,8.53,8.53,0,0,1-3.25.58,6.56,6.56,0,0,1-4.33-1.47A5.44,5.44,0,0,1,57.9,39.55Zm6.76-3.71a3.6,3.6,0,0,0,2.83-1.23,4.66,4.66,0,0,0,1.09-3.23,4.65,4.65,0,0,0-1.09-3.22,3.6,3.6,0,0,0-2.83-1.23,3.69,3.69,0,0,0-2.88,1.21,4.61,4.61,0,0,0-1.1,3.24,4.69,4.69,0,0,0,1.07,3.26A3.72,3.72,0,0,0,64.66,35.84Z" style="fill:#fff"/><path d="M74.46,35.06a3.78,3.78,0,0,1,1.14-2.88,5.44,5.44,0,0,1,3-1.35l3.73-.55c.7-.09,1.06-.44,1.06-1a2.33,2.33,0,0,0-.75-1.79,3.19,3.19,0,0,0-2.23-.7,3,3,0,0,0-2.18.77,3.21,3.21,0,0,0-1,2L74.74,29a4.59,4.59,0,0,1,1.81-3.25,6,6,0,0,1,3.84-1.26,5.85,5.85,0,0,1,4.33,1.43,5,5,0,0,1,1.4,3.66v7a14.5,14.5,0,0,0,.17,2.28H83.66a11,11,0,0,1-.15-1.88,5.09,5.09,0,0,1-1.67,1.62,5.15,5.15,0,0,1-2.77.7A4.6,4.6,0,0,1,75.75,38,3.92,3.92,0,0,1,74.46,35.06Zm5,1.88a4.19,4.19,0,0,0,2.9-1,4.05,4.05,0,0,0,1.09-3.13v-.64l-4.22.64a2.68,2.68,0,0,0-1.46.67,1.87,1.87,0,0,0-.54,1.42,1.92,1.92,0,0,0,.61,1.41A2.19,2.19,0,0,0,79.44,36.94Z" style="fill:#fff"/><path d="M98,24.73v2.89a7.85,7.85,0,0,0-1.17-.08C94.26,27.54,93,29,93,31.82v7H90.3V24.87h2.64V27.3a4.51,4.51,0,0,1,5-2.57Z" style="fill:#fff"/><path d="M108.47,24.73v2.89a8,8,0,0,0-1.18-.08c-2.52,0-3.78,1.42-3.78,4.28v7h-2.69V24.87h2.63V27.3a4.28,4.28,0,0,1,4.13-2.66A4.41,4.41,0,0,1,108.47,24.73Z" style="fill:#fff"/><path d="M120.87,34l2.32.81A6.15,6.15,0,0,1,121,38,6.39,6.39,0,0,1,117,39.23a6.72,6.72,0,0,1-4.92-2,7.34,7.34,0,0,1-2-5.43,7.42,7.42,0,0,1,2-5.27,6.58,6.58,0,0,1,9.51-.1,7.71,7.71,0,0,1,1.75,5.31,5.22,5.22,0,0,1-.06.87H112.85a4.23,4.23,0,0,0,1.22,3A4,4,0,0,0,117,36.82,3.72,3.72,0,0,0,120.87,34Zm-7.93-3.62h7.53a3.72,3.72,0,0,0-1-2.56,3.66,3.66,0,0,0-2.75-1,3.52,3.52,0,0,0-2.64,1.06A3.79,3.79,0,0,0,112.94,30.4Z" style="fill:#fff"/><path d="M129.38,44.29h-2.66V24.87h2.61V27a4.62,4.62,0,0,1,1.8-1.79,5.55,5.55,0,0,1,2.81-.7,5.69,5.69,0,0,1,4.66,2.06,8,8,0,0,1,1.67,5.21,8,8,0,0,1-1.73,5.26,5.79,5.79,0,0,1-4.69,2.09,5.49,5.49,0,0,1-2.69-.64,4.53,4.53,0,0,1-1.78-1.62Zm8.14-12.47a5.44,5.44,0,0,0-1.1-3.49,3.89,3.89,0,0,0-5.93,0,5.29,5.29,0,0,0-1.13,3.49,5.35,5.35,0,0,0,1.13,3.54,3.64,3.64,0,0,0,3,1.38,3.59,3.59,0,0,0,3-1.38A5.4,5.4,0,0,0,137.52,31.82Z" style="fill:#fff"/><path d="M152.65,37.11A3.54,3.54,0,0,1,151,38.69a5.49,5.49,0,0,1-2.41.54,4.76,4.76,0,0,1-3.75-1.58,5.79,5.79,0,0,1-1.41-4V24.87h2.7v8.37a4.13,4.13,0,0,0,.76,2.57,2.73,2.73,0,0,0,2.36,1,3,3,0,0,0,2.44-1,3.84,3.84,0,0,0,.83-2.59V24.87h2.69V36.22a23.31,23.31,0,0,0,.14,2.57h-2.58A10.58,10.58,0,0,1,152.65,37.11Z" style="fill:#fff"/><path d="M169.32,34l2.33.81A6.23,6.23,0,0,1,169.41,38a6.39,6.39,0,0,1-3.95,1.23,6.72,6.72,0,0,1-4.92-2,7.34,7.34,0,0,1-2-5.43,7.42,7.42,0,0,1,1.95-5.27,6.58,6.58,0,0,1,9.51-.1,7.71,7.71,0,0,1,1.75,5.31,6.81,6.81,0,0,1,0,.87H161.3a4.23,4.23,0,0,0,1.22,3,4,4,0,0,0,2.94,1.18A3.72,3.72,0,0,0,169.32,34Zm-7.93-3.62h7.53a3.49,3.49,0,0,0-3.78-3.56,3.48,3.48,0,0,0-2.63,1.06A3.8,3.8,0,0,0,161.39,30.4Z" style="fill:#fff"/><path d="M173.88,35.18l2.44-.87a2.88,2.88,0,0,0,1,1.86,3.24,3.24,0,0,0,2.23.74,2.6,2.6,0,0,0,1.72-.53,1.68,1.68,0,0,0,.63-1.32c0-.93-.59-1.52-1.77-1.8l-2.35-.52a4.51,4.51,0,0,1-2.52-1.38,3.71,3.71,0,0,1-.92-2.52,4,4,0,0,1,1.45-3.1,5,5,0,0,1,3.45-1.3,6.62,6.62,0,0,1,2.35.39,3.93,3.93,0,0,1,1.6,1A5.61,5.61,0,0,1,184,27a5,5,0,0,1,.43,1.13l-2.37.9a2.81,2.81,0,0,0-.21-.68,3.57,3.57,0,0,0-.44-.74,2,2,0,0,0-.87-.65,3.53,3.53,0,0,0-1.35-.25,2.49,2.49,0,0,0-1.65.55,1.66,1.66,0,0,0-.64,1.31c0,.88.52,1.44,1.57,1.67l2.24.5a5.18,5.18,0,0,1,2.82,1.49,3.77,3.77,0,0,1,1,2.65,4.17,4.17,0,0,1-1.33,3,5.06,5.06,0,0,1-3.71,1.33,5.77,5.77,0,0,1-4-1.29A4.59,4.59,0,0,1,173.88,35.18Z" style="fill:#fff"/><path d="M191.73,20.47v4.4h3v2.46h-3v7.24a2,2,0,0,0,.45,1.44,2,2,0,0,0,1.47.47,4.18,4.18,0,0,0,1.06-.12v2.32a5.38,5.38,0,0,1-1.83.26,3.79,3.79,0,0,1-2.81-1A4,4,0,0,1,189,35V27.33H186.4V24.87h.75a2,2,0,0,0,1.59-.59,2.26,2.26,0,0,0,.53-1.55V20.47Z" style="fill:#fff"/><path d="M199,26.54a7.13,7.13,0,0,1,10.11,0,7.36,7.36,0,0,1,2,5.28,7.43,7.43,0,0,1-2,5.31,7.17,7.17,0,0,1-10.14,0,7.43,7.43,0,0,1-2-5.31A7.37,7.37,0,0,1,199,26.54Zm2,8.94a4.18,4.18,0,0,0,6.1,0,5.12,5.12,0,0,0,1.25-3.66,5.06,5.06,0,0,0-1.25-3.63,4.18,4.18,0,0,0-6.1,0,5.06,5.06,0,0,0-1.25,3.63A5.12,5.12,0,0,0,201,35.48Z" style="fill:#fff"/><path d="M213.25,35.18l2.43-.87a2.89,2.89,0,0,0,1,1.86,3.24,3.24,0,0,0,2.23.74,2.6,2.6,0,0,0,1.72-.53,1.68,1.68,0,0,0,.63-1.32c0-.93-.59-1.52-1.77-1.8l-2.35-.52a4.58,4.58,0,0,1-2.53-1.38,3.7,3.7,0,0,1-.91-2.52,4,4,0,0,1,1.44-3.1,5,5,0,0,1,3.46-1.3,6.62,6.62,0,0,1,2.35.39,4,4,0,0,1,1.6,1,6,6,0,0,1,.86,1.18,5,5,0,0,1,.43,1.13l-2.38.9a2.41,2.41,0,0,0-.2-.68,3.57,3.57,0,0,0-.44-.74,2,2,0,0,0-.88-.65,3.44,3.44,0,0,0-1.34-.25,2.49,2.49,0,0,0-1.65.55,1.66,1.66,0,0,0-.64,1.31c0,.88.52,1.44,1.57,1.67l2.24.5a5.18,5.18,0,0,1,2.82,1.49,3.77,3.77,0,0,1,1,2.65,4.14,4.14,0,0,1-1.34,3,5,5,0,0,1-3.71,1.33,5.74,5.74,0,0,1-4-1.29A4.59,4.59,0,0,1,213.25,35.18Z" style="fill:#fff"/><path d="M7.49,18.7A6.4,6.4,0,0,0,3.67,30.23v.54a1.89,1.89,0,0,0-.13,2.71A1.84,1.84,0,0,0,3,34.76a1.9,1.9,0,0,0,1.33,1.81,3.18,3.18,0,0,0,6.27,0A1.9,1.9,0,0,0,12,34.76a1.84,1.84,0,0,0-.51-1.28,1.89,1.89,0,0,0-.13-2.71v-.54A6.4,6.4,0,0,0,7.49,18.7Zm2.58,12.8a.69.69,0,0,1,.69.69.68.68,0,0,1-.69.68H4.92a.68.68,0,0,1-.69-.68.69.69,0,0,1,.69-.69ZM7.49,38a2,2,0,0,1-1.88-1.38H9.38A2,2,0,0,1,7.49,38Zm2.58-2.58H4.92a.69.69,0,1,1,0-1.37h5.15a.69.69,0,1,1,0,1.37Zm.31-6a.6.6,0,0,0-.27.5v.38H9.38V27.93l.87-.87a.6.6,0,1,0-.85-.85l-1,1a.58.58,0,0,0-.18.43V30.3H6.81V27.68a.62.62,0,0,0-.18-.43l-1-1a.61.61,0,0,0-.85,0,.59.59,0,0,0,0,.85l.86.87V30.3H4.87v-.38a.61.61,0,0,0-.26-.5,5.2,5.2,0,1,1,5.77,0Z" style="fill:#fff"/><rect width="225" height="63" style="fill:none"/></g></g></svg>